<svg xmlns="http://www.w3.org/2000/svg" viewBox="0 0 480 320" fill="none">
  <defs>
    <linearGradient id="bg1" x1="0" y1="0" x2="480" y2="320" gradientUnits="userSpaceOnUse">
      <stop stop-color="#f8fafc"/>
      <stop offset="1" stop-color="#e2e8f0"/>
    </linearGradient>
    <linearGradient id="glass1" x1="120" y1="80" x2="280" y2="240" gradientUnits="userSpaceOnUse">
      <stop stop-color="#93c5fd"/>
      <stop offset="1" stop-color="#3b82f6"/>
    </linearGradient>
    <filter id="sh1" x="-20%" y="-20%" width="140%" height="140%">
      <feDropShadow dx="0" dy="8" stdDeviation="12" flood-opacity="0.15"/>
    </filter>
  </defs>
  <rect width="480" height="320" rx="20" fill="url(#bg1)"/>
  <rect x="72" y="64" width="200" height="180" rx="12" fill="#fff" filter="url(#sh1)"/>
  <rect x="92" y="88" width="120" height="10" rx="5" fill="#cbd5e1"/>
  <rect x="92" y="108" width="160" height="8" rx="4" fill="#e2e8f0"/>
  <rect x="92" y="124" width="140" height="8" rx="4" fill="#e2e8f0"/>
  <rect x="92" y="148" width="100" height="8" rx="4" fill="#bfdbfe"/>
  <circle cx="268" cy="168" r="52" stroke="url(#glass1)" stroke-width="10" fill="rgba(255,255,255,0.4)"/>
  <circle cx="268" cy="168" r="36" stroke="#1e40af" stroke-width="4" fill="none" opacity="0.5"/>
  <path d="M308 208l48 48" stroke="#1e293b" stroke-width="12" stroke-linecap="round"/>
  <rect x="48" y="200" width="56" height="72" rx="8" fill="#fce7f3" stroke="#f472b6" stroke-width="2" transform="rotate(-8 76 236)"/>
  <rect x="360" y="180" width="56" height="72" rx="8" fill="#dbeafe" stroke="#3b82f6" stroke-width="2" transform="rotate(8 388 216)"/>
</svg>
