<svg xmlns="http://www.w3.org/2000/svg" viewBox="0 0 480 320" fill="none">
  <defs>
    <linearGradient id="bg2" x1="0" y1="0" x2="480" y2="320">
      <stop stop-color="#f8fafc"/>
      <stop offset="1" stop-color="#e0f2fe"/>
    </linearGradient>
    <linearGradient id="bar2" x1="0" y1="0" x2="0" y2="1">
      <stop stop-color="#60a5fa"/>
      <stop offset="1" stop-color="#2563eb"/>
    </linearGradient>
  </defs>
  <rect width="480" height="320" rx="20" fill="url(#bg2)"/>
  <path d="M80 220 L140 140 L200 180 L260 100 L340 160 L400 80" stroke="#94a3b8" stroke-width="3" fill="none" stroke-linecap="round" stroke-linejoin="round"/>
  <circle cx="140" cy="140" r="8" fill="#2563eb"/>
  <circle cx="260" cy="100" r="8" fill="#2563eb"/>
  <circle cx="400" cy="80" r="8" fill="#22c55e"/>
  <rect x="100" y="200" width="40" height="70" rx="6" fill="url(#bar2)" opacity="0.85"/>
  <rect x="160" y="170" width="40" height="100" rx="6" fill="url(#bar2)"/>
  <rect x="220" y="190" width="40" height="80" rx="6" fill="url(#bar2)" opacity="0.75"/>
  <rect x="280" y="150" width="40" height="120" rx="6" fill="url(#bar2)" opacity="0.9"/>
  <circle cx="360" cy="72" r="28" fill="#fef3c7" stroke="#f59e0b" stroke-width="3"/>
  <path d="M352 72h16M360 64v16" stroke="#b45309" stroke-width="3" stroke-linecap="round"/>
  <rect x="300" y="230" width="120" height="56" rx="10" fill="#fff" stroke="#e2e8f0" stroke-width="2"/>
  <path d="M318 252h84M318 266h56" stroke="#cbd5e1" stroke-width="4" stroke-linecap="round"/>
</svg>
